<?xml version="1.0" encoding="utf-8"?>
<!-- Generator: Adobe Illustrator 28.2.0, SVG Export Plug-In . SVG Version: 6.00 Build 0)  -->
<svg version="1.1" id="Capa_1" xmlns="http://www.w3.org/2000/svg" xmlns:xlink="http://www.w3.org/1999/xlink" x="0px" y="0px"
	 viewBox="0 0 87 70.33" style="enable-background:new 0 0 87 70.33;" xml:space="preserve">
<style type="text/css">
	.st0{fill:#551C50;}
</style>
<path class="st0" d="M48.94,70.33c-8.54-0.01-17.23-0.01-25.63-0.01l-5.7,0l-0.12-0.15c-0.1-0.13-0.19-0.24-0.27-0.34l-3.52-4.95
	c-3.16-4.44-6.42-9.03-9.65-13.57c-0.31-0.43-0.47-0.86-0.51-1.37c-0.14-1.57-0.31-3.16-0.47-4.7L3.05,45.1
	c-0.08-0.8-0.17-1.62-0.25-2.43c-0.09-0.91-0.17-1.79-0.27-2.84c-0.08-0.85-0.17-1.81-0.27-2.76c-0.12-1.21-0.25-2.44-0.37-3.63
	l-0.01-0.05c-0.13-1.28-0.25-2.43-0.36-3.59c-0.09-0.94-0.18-1.85-0.29-2.95c-0.08-0.87-0.17-1.76-0.26-2.65
	c-0.09-0.94-0.19-1.9-0.29-2.82l-0.02-0.16c-0.09-0.87-0.18-1.74-0.26-2.61c-0.05-0.51-0.1-1.03-0.15-1.53l-0.01-0.06
	c-0.08-0.81-0.16-1.65-0.25-2.48c-0.05-0.42,0.05-0.75,0.33-1.07c2.7-3.17,5.38-6.35,7.98-9.43l2.76-3.27
	c0.07-0.09,0.16-0.18,0.26-0.28l0.13-0.13l1.03-0.04c0.73-0.03,1.49-0.06,2.24-0.08c1.04-0.03,2.08-0.06,3.23-0.08l0.02,0
	c1.91-0.05,3.88-0.1,5.83-0.16c0.03,0,0.05,0,0.08,0c0.44,0,0.77,0.13,1.11,0.44c4.42,3.99,8.93,8.03,13.29,11.95l2.78,2.5
	c0.08,0.07,0.15,0.14,0.23,0.2l0.46,0.4l0.56-0.25c0.12-0.05,0.21-0.1,0.3-0.14l8.13-3.96c4.5-2.2,9.16-4.47,13.74-6.7
	c0.14-0.07,0.26-0.13,0.36-0.18c0.35-0.18,0.45-0.22,0.59-0.22c0.13,0,0.25,0.04,0.59,0.17l0.01,0.01c0.1,0.04,0.22,0.08,0.37,0.14
	l15.02,5.44c0.15,0.06,0.3,0.11,0.45,0.16c0.2,0.07,0.31,0.18,0.37,0.35c0.02,0.07,0.05,0.13,0.07,0.18l0.01,0.02
	c0.02,0.03,0.03,0.07,0.04,0.1c1.49,3.7,2.98,7.4,4.47,11.1c0.04,0.09,0.07,0.19,0.11,0.31L87,22.16L71.09,62.35l-0.21,0.09
	c-0.16,0.07-0.31,0.13-0.45,0.18l-5.52,2.04c-4.79,1.77-9.73,3.6-14.65,5.43C49.82,70.25,49.39,70.33,48.94,70.33L48.94,70.33z
	 M23.2,1.53c-2.14,0.03-4.33,0.1-6.44,0.17l-0.03,0c-1.01,0.03-2.06,0.07-3.1,0.1l-1.01,0.03l0.09,1c0.1,1.1,0.2,2.23,0.28,3.2
	c0,0,0.35,3.86,0.43,4.72l0.17,1.89c0.07,0.78,0.14,1.57,0.21,2.35c0.06,0.68,0.13,1.37,0.19,2.05l0.01,0.13
	c0.07,0.75,0.14,1.53,0.21,2.3c0.07,0.78,0.14,1.57,0.2,2.34l0,0.02c0.06,0.68,0.12,1.36,0.18,2.04c0.08,0.93,0.17,1.87,0.25,2.8
	l0.19,2.07l0.37,4.16l0.18,1.98c0.08,0.86,0.16,1.72,0.24,2.58c0.07,0.74,0.13,1.48,0.2,2.22c0.06,0.73,0.13,1.45,0.19,2.17
	c0.07,0.74,0.13,1.48,0.2,2.23c0.07,0.78,0.14,1.56,0.21,2.33c0.07,0.74,0.13,1.47,0.19,2.21c0.06,0.7,0.12,1.41,0.19,2.11
	c0.08,0.87,0.43,4.8,0.43,4.8l0.37,4.16l0.43,4.8l0.12,1.32c0.06,0.72,0.13,1.44,0.19,2.15l0.08,0.86l0.87,0c1.2,0,2.4,0,3.59,0
	c1.62,0,3.23,0,4.85,0l1.36,0l-10.43-28.2c-0.05-0.12-0.09-0.26-0.13-0.41l-0.05-0.16l0.12-0.18c0.09-0.14,0.16-0.25,0.24-0.37
	c4.06-5.95,8.11-11.9,12.17-17.85c0.1-0.14,0.18-0.28,0.27-0.42l0.01-0.01c0.22-0.36,0.45-0.72,0.75-0.99
	c0.31-0.26,0.7-0.44,1.08-0.62l0.02-0.01c0.11-0.05,0.22-0.1,0.34-0.16L34.63,19l-0.54-0.89c-1.82-3.02-8.7-14.04-10.08-16.15
	l-0.29-0.44L23.2,1.53z M41.02,30.77c-6.59,3.14-13.19,6.29-19.78,9.43l-0.79,0.38l0.3,0.82c0.02,0.06,3.71,10.05,3.71,10.05
	c2.13,5.76,4.05,10.96,6.01,16.25c0.02,0.05,0.04,0.11,0.06,0.19c0.01,0.04,0.02,0.07,0.03,0.1l0.22,0.64l17.78,0.19l0.22-0.66
	c0-0.01,0.01-0.02,0.01-0.03c0.02-0.06,0.04-0.11,0.06-0.16c1.05-2.72,2.09-5.46,3.1-8.1l1.26-3.29c0.51-1.34,1.09-2.86,1.67-4.35
	c0.02-0.05,0.03-0.09,0.04-0.11l0.15-0.47l-0.29-0.4c-0.06-0.08-0.11-0.16-0.16-0.24l-0.01-0.02c-0.02-0.04-0.04-0.07-0.06-0.11
	l-6.4-10.26c-1.94-3.11-3.94-6.33-5.92-9.49l-0.45-0.72L41.02,30.77z M51.11,68.17l18.75-6.98L83.34,27.1L51.11,68.17z M8.32,6.37
	c-2.09,2.47-4.25,5.03-6.42,7.57c-0.3,0.35-0.4,0.71-0.34,1.2c0.09,0.68,0.15,1.37,0.21,2.04l0,0.02c0.03,0.27,0.05,0.54,0.08,0.82
	l0.95,9.51c0.03,0.3,0.1,1.03,0.17,1.78c0.08,0.84,0.17,1.71,0.2,2.06l0.59,5.91l0.38,3.83c0.11,1.12,0.41,4.08,0.41,4.08l0.13,1.26
	c0.1,1,0.21,2.03,0.3,3.05c0.04,0.44,0.18,0.82,0.45,1.19c0.96,1.34,1.94,2.71,2.87,4.03l2.27,3.2c1.44,2.03,2.89,4.06,4.33,6.09
	l2.03,2.86l-0.31-3.49c0,0-0.22-2.44-0.29-3.22l-0.43-4.72c0,0-0.31-3.51-0.38-4.24c-0.03-0.34-0.11-1.16-0.18-2.02
	c-0.1-1.05-0.2-2.18-0.24-2.61c-0.03-0.38-0.12-1.34-0.2-2.28c-0.08-0.86-0.15-1.7-0.18-2.04c-0.04-0.39-0.13-1.39-0.22-2.38
	c-0.09-0.95-0.17-1.88-0.21-2.26c-0.06-0.63-0.11-1.27-0.17-1.9l-0.02-0.23c-0.06-0.73-0.13-1.46-0.19-2.19
	c-0.06-0.71-0.13-1.43-0.2-2.14l-0.02-0.2c-0.07-0.74-0.14-1.48-0.2-2.21c-0.07-0.73-0.13-1.47-0.19-2.2l0-0.04
	c-0.06-0.69-0.12-1.38-0.18-2.07c-0.08-0.89-0.16-1.78-0.24-2.67l-0.19-2.13l-0.16-1.82c-0.07-0.77-0.14-1.56-0.21-2.34
	c-0.08-0.85-0.16-1.7-0.24-2.55l-0.03-0.38c-0.1-1.06-0.2-2.16-0.3-3.23c-0.08-0.89-0.16-1.78-0.24-2.67
	c-0.04-0.47-0.08-0.93-0.12-1.4l-0.2-2.27L8.32,6.37z M51.77,64.86l26.87-34.27c2.03-2.59,6.56-8.55,6.56-8.55l-4.14-10.25
	c0,0-18.29,8.64-27.16,12.87l-1.29,0.62l4.04,3.62c0,0,0.03,22.87,0.01,23.03C56.63,52.15,51.77,64.86,51.77,64.86z M50.59,26.24
	c-1.44,0.62-4.88,2.28-6.48,3.11l-0.92,0.47l11.93,19.14l0.02-3.29c0.03-4.78,0.02-13.89-0.03-15.73l-0.01-0.38l-0.27-0.27
	c-0.8-0.79-2.46-2.26-3.26-2.91l-0.45-0.37L50.59,26.24z M34.67,20.66c-0.21,0.1-0.45,0.22-0.7,0.33c-0.46,0.19-0.82,0.5-1.15,0.98
	c-2.28,3.37-4.6,6.77-6.85,10.06l-4.29,6.29l3.18-1.51c5.05-2.41,10.11-4.82,15.17-7.23l0.94-0.45l-0.53-0.9
	c-1.36-2.29-3.61-5.83-4.56-7.25l-0.46-0.69L34.67,20.66z M40.96,17.6c-0.91,0.4-2.38,1.13-3.21,1.57l-0.89,0.48l0.54,0.86
	c1.24,1.99,2.87,4.6,4.52,7.24l0.45,0.72l1.34-0.64c1.65-0.78,3.29-1.56,4.92-2.34l1.26-0.6l-1.02-0.95
	c-1.67-1.55-5.59-5.08-6.91-6.19l-0.45-0.38L40.96,17.6z M65.01,5.85c-0.06,0.04-0.13,0.07-0.19,0.1l-0.08,0.04l-13.65,6.65
	c-2.24,1.09-4.57,2.22-6.85,3.34l-1.27,0.62l1.05,0.94c1.83,1.65,3.71,3.33,5.52,4.96l1.85,1.66l0.57-0.26
	c0.1-0.04,0.21-0.09,0.32-0.15l21.65-10.3c1.19-0.57,2.43-1.15,3.65-1.74l2.05-0.98l-2.13-0.77c-1.99-0.72-7.68-2.79-7.68-2.79
	L68.76,6.8c-0.89-0.32-1.81-0.65-2.72-0.99c-0.14-0.05-0.26-0.08-0.37-0.1l-0.35-0.05L65.01,5.85z M36.01,18.28l0.75-0.33
	c0.64-0.28,1.56-0.73,2.3-1.12l1.21-0.64L27.86,5.15L36.01,18.28z M69.09,61.52"/>
</svg>
