<?xml version="1.0" encoding="utf-8"?>
<!-- Generator: Adobe Illustrator 28.2.0, SVG Export Plug-In . SVG Version: 6.00 Build 0)  -->
<svg version="1.1" id="Capa_1" xmlns="http://www.w3.org/2000/svg" xmlns:xlink="http://www.w3.org/1999/xlink" x="0px" y="0px"
	 viewBox="0 0 139.68 93.13" style="enable-background:new 0 0 139.68 93.13;" xml:space="preserve">
<style type="text/css">
	.st0{fill:#FFFFFF;}
</style>
<g>
	<path class="st0" d="M70.22,50.05c-5.91,0-11.91-0.01-17.72-0.01l-3.94,0l-0.08-0.1c-0.07-0.09-0.13-0.16-0.19-0.24l-2.43-3.42
		c-2.18-3.07-4.44-6.24-6.67-9.38c-0.21-0.3-0.32-0.59-0.36-0.95c-0.1-1.08-0.21-2.18-0.32-3.25l-0.01-0.09
		c-0.06-0.55-0.12-1.12-0.17-1.68c-0.06-0.63-0.12-1.23-0.19-1.96c-0.06-0.59-0.12-1.25-0.18-1.91c-0.08-0.84-0.17-1.69-0.25-2.51
		l0-0.04c-0.09-0.88-0.17-1.68-0.25-2.48c-0.06-0.65-0.13-1.28-0.2-2.04c-0.06-0.6-0.12-1.22-0.18-1.83
		c-0.06-0.65-0.13-1.31-0.2-1.95l-0.01-0.11c-0.06-0.6-0.12-1.2-0.18-1.8c-0.04-0.35-0.07-0.71-0.1-1.06l0-0.04
		c-0.05-0.56-0.11-1.14-0.17-1.72c-0.03-0.29,0.04-0.52,0.22-0.74c1.86-2.19,3.72-4.39,5.52-6.52l1.91-2.26
		c0.05-0.06,0.11-0.12,0.18-0.19l0.09-0.09l0.71-0.03c0.51-0.02,1.03-0.04,1.55-0.06c0.72-0.02,1.44-0.04,2.23-0.06l0.01,0
		c1.32-0.03,2.68-0.07,4.03-0.11c0.02,0,0.04,0,0.05,0c0.3,0,0.53,0.09,0.77,0.31c3.06,2.76,6.17,5.55,9.18,8.26l1.92,1.73
		c0.05,0.05,0.11,0.09,0.16,0.14l0.32,0.28l0.39-0.17c0.08-0.04,0.15-0.07,0.21-0.1l5.62-2.74c3.11-1.52,6.33-3.09,9.5-4.63
		c0.1-0.05,0.18-0.09,0.25-0.12c0.24-0.12,0.31-0.15,0.41-0.15c0.09,0,0.17,0.03,0.41,0.12l0.01,0c0.07,0.03,0.16,0.06,0.25,0.09
		l10.38,3.76c0.11,0.04,0.21,0.08,0.31,0.11c0.14,0.05,0.22,0.12,0.25,0.24c0.02,0.05,0.04,0.09,0.05,0.12l0.01,0.01
		c0.01,0.02,0.02,0.05,0.03,0.07c1.03,2.56,2.06,5.11,3.09,7.67c0.03,0.06,0.05,0.13,0.08,0.21l0.04,0.11l-11,27.77l-0.15,0.06
		c-0.11,0.05-0.21,0.09-0.31,0.13l-3.82,1.41c-3.31,1.22-6.73,2.49-10.13,3.75C70.83,50,70.53,50.05,70.22,50.05L70.22,50.05z
		 M52.42,2.5c-1.48,0.02-2.99,0.07-4.45,0.12l-0.02,0c-0.7,0.02-1.42,0.05-2.14,0.07l-0.7,0.02l0.06,0.69
		c0.07,0.76,0.14,1.54,0.2,2.21c0,0,0.24,2.67,0.3,3.26l0.12,1.31c0.05,0.54,0.1,1.08,0.14,1.62c0.04,0.47,0.09,0.94,0.13,1.42
		l0.01,0.09c0.05,0.52,0.1,1.06,0.15,1.59c0.05,0.54,0.1,1.09,0.14,1.62l0,0.01c0.04,0.47,0.08,0.94,0.12,1.41
		c0.06,0.65,0.12,1.29,0.17,1.94l0.13,1.43l0.26,2.87l0.13,1.37c0.05,0.59,0.11,1.19,0.16,1.78c0.05,0.51,0.09,1.02,0.14,1.54
		c0.04,0.5,0.09,1,0.13,1.5c0.05,0.51,0.09,1.03,0.14,1.54c0.05,0.54,0.1,1.07,0.15,1.61c0.05,0.51,0.09,1.02,0.13,1.53
		c0.04,0.49,0.08,0.97,0.13,1.46c0.05,0.6,0.3,3.32,0.3,3.32l0.26,2.87l0.3,3.32l0.08,0.91c0.04,0.5,0.09,0.99,0.13,1.49l0.05,0.6
		l0.6,0c0.83,0,1.66,0,2.48,0c1.12,0,2.23,0,3.35,0l0.94,0l-7.21-19.49c-0.03-0.09-0.06-0.18-0.09-0.28l-0.03-0.11L49.4,29
		c0.06-0.09,0.11-0.18,0.17-0.26c2.8-4.11,5.61-8.23,8.41-12.34c0.07-0.1,0.13-0.2,0.19-0.29l0-0.01c0.15-0.25,0.31-0.5,0.52-0.68
		c0.21-0.18,0.48-0.31,0.75-0.43L59.44,15c0.08-0.03,0.15-0.07,0.23-0.11l0.65-0.31l-0.37-0.62c-1.26-2.09-6.01-9.7-6.97-11.16
		l-0.2-0.3L52.42,2.5z M64.75,22.71c-4.56,2.17-9.11,4.34-13.67,6.52l-0.54,0.26l0.21,0.56c0.01,0.04,2.57,6.95,2.57,6.95
		c1.47,3.98,2.8,7.57,4.15,11.23c0.01,0.04,0.03,0.08,0.04,0.13c0.01,0.03,0.02,0.05,0.02,0.07l0.15,0.44L69.97,49l0.15-0.46
		c0-0.01,0-0.01,0.01-0.02c0.01-0.04,0.03-0.08,0.04-0.11c0.72-1.88,1.44-3.77,2.14-5.6l0.87-2.28c0.35-0.93,0.75-1.98,1.15-3
		c0.01-0.03,0.02-0.06,0.03-0.08l0.11-0.32l-0.2-0.27c-0.04-0.05-0.07-0.11-0.11-0.17l-0.01-0.02c-0.01-0.02-0.03-0.05-0.04-0.07
		l-4.42-7.09c-1.34-2.15-2.73-4.37-4.09-6.56l-0.31-0.5L64.75,22.71z M71.71,48.56l12.96-4.83l9.32-23.56L71.71,48.56z M42.14,5.85
		c-1.45,1.71-2.94,3.48-4.43,5.23c-0.21,0.24-0.28,0.49-0.24,0.83c0.06,0.47,0.1,0.95,0.15,1.41l0,0.01
		c0.02,0.19,0.04,0.38,0.05,0.56l0.66,6.57c0.02,0.21,0.07,0.71,0.12,1.23c0.06,0.58,0.12,1.18,0.14,1.42L39,27.21l0.26,2.65
		c0.08,0.77,0.28,2.82,0.28,2.82l0.09,0.87c0.07,0.69,0.15,1.41,0.21,2.11c0.03,0.3,0.13,0.57,0.31,0.82
		c0.67,0.93,1.34,1.87,1.99,2.79l1.57,2.21c1,1.4,1.99,2.81,2.99,4.21l1.4,1.97l-0.21-2.41c0,0-0.15-1.69-0.2-2.23l-0.3-3.26
		c0,0-0.22-2.42-0.26-2.93c-0.02-0.23-0.07-0.8-0.13-1.4c-0.07-0.73-0.14-1.5-0.16-1.81c-0.02-0.26-0.08-0.93-0.14-1.57
		c-0.05-0.6-0.1-1.18-0.13-1.41c-0.02-0.27-0.09-0.96-0.15-1.65c-0.06-0.65-0.12-1.3-0.14-1.56c-0.04-0.44-0.08-0.88-0.12-1.31
		l-0.01-0.16c-0.04-0.5-0.09-1.01-0.13-1.51c-0.04-0.49-0.09-0.99-0.14-1.48l-0.01-0.14c-0.05-0.51-0.09-1.02-0.14-1.53
		c-0.05-0.51-0.09-1.02-0.13-1.52l0-0.03c-0.04-0.48-0.08-0.95-0.13-1.43c-0.06-0.62-0.11-1.23-0.17-1.85L45.18,15l-0.11-1.26
		c-0.05-0.53-0.1-1.08-0.14-1.62c-0.05-0.59-0.11-1.17-0.16-1.76l-0.02-0.26c-0.07-0.73-0.14-1.49-0.21-2.24
		c-0.06-0.62-0.11-1.23-0.17-1.85c-0.03-0.32-0.06-0.64-0.09-0.97l-0.14-1.57L42.14,5.85z M72.17,46.27l18.57-23.69
		c1.4-1.79,4.53-5.91,4.53-5.91l-2.86-7.09c0,0-12.64,5.97-18.77,8.89l-0.89,0.43l2.79,2.5c0,0,0.02,15.81,0.01,15.92
		C75.53,37.49,72.17,46.27,72.17,46.27z M71.36,19.58c-1,0.43-3.37,1.58-4.48,2.15l-0.63,0.33l8.25,13.23l0.01-2.27
		c0.02-3.3,0.01-9.6-0.02-10.87l-0.01-0.27l-0.19-0.19c-0.56-0.55-1.7-1.56-2.25-2.01l-0.31-0.25L71.36,19.58z M60.36,15.72
		c-0.14,0.07-0.31,0.15-0.49,0.23c-0.32,0.13-0.57,0.35-0.79,0.68c-1.58,2.33-3.18,4.68-4.73,6.95l-2.96,4.34l2.2-1.05
		c3.49-1.66,6.99-3.33,10.48-5l0.65-0.31l-0.37-0.62c-0.94-1.58-2.49-4.03-3.15-5.01l-0.32-0.48L60.36,15.72z M64.7,13.61
		c-0.63,0.27-1.64,0.78-2.22,1.09l-0.62,0.33l0.37,0.59c0.85,1.37,1.98,3.18,3.12,5l0.31,0.5l0.93-0.44
		c1.14-0.54,2.27-1.08,3.4-1.62l0.87-0.42l-0.71-0.66c-1.15-1.07-3.87-3.51-4.78-4.28l-0.31-0.26L64.7,13.61z M81.33,5.49
		c-0.04,0.03-0.09,0.05-0.13,0.07l-0.06,0.03l-9.43,4.6c-1.55,0.76-3.16,1.54-4.73,2.31l-0.87,0.43l0.72,0.65
		c1.26,1.14,2.56,2.3,3.82,3.43l1.28,1.15l0.39-0.18c0.07-0.03,0.14-0.07,0.22-0.1l14.96-7.12c0.82-0.39,1.68-0.8,2.52-1.2
		l1.42-0.68l-1.47-0.54c-1.37-0.5-5.31-1.93-5.31-1.93l-0.73-0.26c-0.61-0.22-1.25-0.45-1.88-0.69c-0.1-0.04-0.18-0.06-0.25-0.07
		l-0.25-0.03L81.33,5.49z M61.28,14.07l0.52-0.23c0.44-0.19,1.08-0.5,1.59-0.77l0.84-0.44L55.65,5L61.28,14.07z M84.14,43.96"/>
	<g>
		<path class="st0" d="M3.07,61.22c0,2.87,2.03,3.71,4.86,4.49c3.27,0.9,7.07,1.74,7.07,6.08c0,4.14-3.33,5.73-7.07,5.73
			c-4.92,0-6.8-2.43-7.39-5.68l1.44-0.29c0.47,2.32,1.77,4.66,5.92,4.66c2.56,0,5.51-0.81,5.51-4.29c0-3.42-2.94-4.17-5.89-4.92
			c-3.06-0.78-5.98-1.85-5.98-5.73c0-3.3,2.68-5.44,6.74-5.44c3.68,0,6.09,1.68,6.62,5.76l-1.35,0.14
			c-0.44-2.09-1.21-4.66-5.18-4.66C4.36,57.08,3.07,58.96,3.07,61.22z"/>
		<path class="st0" d="M19.41,77.18V56.21h1.41v20.97H19.41z"/>
		<path class="st0" d="M28.53,57.4v19.78h-1.38V56.21h2.27l11.72,19.43V56.21h1.35v20.97h-1.91L28.53,57.4z"/>
		<path class="st0" d="M52.65,57.43h-6.54v-1.22h14.49v1.22h-6.54v19.75h-1.41V57.43z"/>
		<path class="st0" d="M76.17,75.96v1.22H64.22V56.21h11.72v1.22h-10.3v8.46h9.63v1.25h-9.63v8.83H76.17z"/>
		<path class="st0" d="M93.6,77.18l-5.3-9.3h-6.18v9.3h-1.38V56.21h6.57c5.3,0,6.8,2.49,6.8,5.5c0,3.19-1.77,5.13-4.45,5.85
			l5.51,9.61H93.6z M92.6,61.69c0-3.59-2.41-4.29-5.95-4.29h-4.53v9.27h5.01C90.42,66.67,92.6,65.51,92.6,61.69z"/>
		<path class="st0" d="M111.18,75.96v1.22H99.22V56.21h11.72v1.22h-10.3v8.46h9.63v1.25h-9.63v8.83H111.18z"/>
		<path class="st0" d="M115.74,56.21h5.89c7.39,0,10.57,3.91,10.57,10.16c0,6.43-3.44,10.8-11.07,10.8h-5.39V56.21z M130.7,66.52
			c0-7.04-3.56-9.12-9.19-9.12h-4.36v18.59h4.21C127.34,75.99,130.7,72.69,130.7,66.52z"/>
	</g>
	<g>
		<g>
			<path class="st0" d="M136.09,60.87l-0.5-1.03h-0.23v1.03h-0.74v-2.8h1.17c0.7,0,0.94,0.38,0.94,0.8c0,0.41-0.19,0.65-0.45,0.79
				l0.61,1.21H136.09z M135.97,58.94c0-0.2-0.11-0.31-0.38-0.31h-0.24v0.68h0.18C135.76,59.3,135.97,59.23,135.97,58.94z"/>
		</g>
		<g>
			<path class="st0" d="M135.76,62.6c-1.73,0-3.14-1.41-3.14-3.14s1.41-3.14,3.14-3.14s3.14,1.41,3.14,3.14S137.49,62.6,135.76,62.6
				z M135.76,56.88c-1.42,0-2.58,1.16-2.58,2.58s1.16,2.58,2.58,2.58s2.58-1.16,2.58-2.58S137.18,56.88,135.76,56.88z"/>
		</g>
	</g>
	<g>
		<path class="st0" d="M29.72,86.24c0,0.76,0.81,1,1.74,1.25c1.23,0.34,2.67,0.77,2.67,2.54c0,1.92-1.56,2.68-3.25,2.68
			c-1.52,0-3.13-0.49-3.28-2.7l1.64-0.25c0.14,0.82,0.45,1.51,1.69,1.51c0.75,0,1.41-0.26,1.41-1.04c0-0.74-0.8-0.96-1.71-1.2
			c-1.24-0.33-2.71-0.7-2.71-2.56c0-1.65,1.38-2.56,3.1-2.56c1.51,0,2.9,0.47,3.02,2.49l-1.65,0.19c-0.07-0.8-0.4-1.28-1.4-1.28
			C30.12,85.33,29.72,85.7,29.72,86.24z"/>
		<path class="st0" d="M47.05,85.62h-2.5v-1.52h6.79v1.52h-2.47v6.96h-1.82V85.62z"/>
		<path class="st0" d="M61.6,88.37c0-2.52,1.4-4.43,4.14-4.43c2.76,0,3.89,1.91,3.89,4.27c0,2.76-1.32,4.51-4.08,4.51
			C62.75,92.72,61.6,90.9,61.6,88.37z M67.77,88.31c0-1.96-0.76-2.85-2.06-2.85c-1.37,0-2.24,0.9-2.24,2.87
			c0,2.03,0.82,2.86,2.16,2.86C66.89,91.2,67.77,90.41,67.77,88.31z"/>
		<path class="st0" d="M82.74,86.59v5.99h-1.65v-8.49h2.16l3.21,6.01v-6.01h1.64v8.49h-2.09L82.74,86.59z"/>
		<path class="st0" d="M105.56,91.06v1.52h-5.59v-8.49h5.38v1.51h-3.58v1.99h3.36v1.48h-3.36v1.98H105.56z"/>
	</g>
</g>
</svg>
